<svg width="592" height="563" viewBox="0 0 592 563" fill="none" xmlns="http://www.w3.org/2000/svg">
<g filter="url(#filter0_i_35_539)">
<path d="M-262.078 243.141C-238.943 205.946 -205.21 182.471 -160.879 172.717C-116.547 162.962 -78.2546 141.64 -46.0008 108.75C-13.747 75.8605 21.2495 83.6651 58.9885 132.164C96.7276 180.664 131.113 205.264 162.144 205.967C193.175 206.67 219.091 218.207 239.893 240.579C260.694 262.952 304.327 272.393 370.791 268.903C437.255 265.413 474.515 286.14 482.568 331.086C490.622 376.031 497.972 420.992 504.617 465.97C511.262 510.947 484.224 543.859 423.505 564.705C362.786 585.552 345.984 628.525 373.098 693.626C400.212 758.727 392.568 801.491 350.167 821.92C307.766 842.349 262.873 845.911 215.489 832.606C168.104 819.302 125.444 821.826 87.5075 840.179C49.5714 858.531 7.38514 869.647 -39.0514 873.527C-85.4879 877.406 -124.45 862.499 -155.936 828.807C-187.423 795.114 -198.129 751.357 -188.054 697.537C-177.979 643.717 -186.477 604.141 -213.548 578.809C-240.618 553.477 -241.969 524.597 -217.6 492.169C-193.23 459.741 -200.335 419.428 -238.913 371.23C-277.491 323.032 -285.213 280.336 -262.078 243.141Z" fill="#390000"/>
</g>
<g filter="url(#filter1_i_35_539)">
<path d="M-192.632 306.105C-175.839 279.911 -150.343 264.007 -116.147 258.392C-81.9501 252.777 -52.8344 238.581 -28.7998 215.806C-4.76523 193.03 22.7389 199.833 53.7127 236.214C84.6864 272.596 112.265 291.55 136.449 293.076C160.633 294.603 181.19 303.813 198.119 320.706C215.049 337.6 249.331 345.872 300.966 345.522C352.6 345.172 382.29 361.413 390.034 394.246C397.779 427.079 404.975 459.9 411.623 492.71C418.271 525.52 398.299 548.483 351.707 561.598C305.114 574.713 293.441 605.303 316.686 653.366C339.931 701.429 335.382 732.167 303.038 745.58C270.695 758.993 235.858 760.102 198.528 748.908C161.198 737.714 128.065 738.144 99.1298 750.199C70.1944 762.254 37.7126 768.926 1.68421 770.215C-34.3441 771.504 -65.1685 759.425 -90.7888 733.977C-116.409 708.53 -126.179 676.472 -120.1 637.802C-114.02 599.133 -121.934 570.176 -143.841 550.932C-165.749 531.688 -167.747 510.717 -149.837 488.017C-131.926 465.318 -138.779 435.873 -170.396 399.682C-202.013 363.492 -209.425 332.299 -192.632 306.105Z" fill="#EE9695"/>
</g>
<g filter="url(#filter2_i_35_539)">
<path d="M-79.2946 374.185C-69.3052 358.604 -54.1394 349.144 -33.7973 345.804C-13.4552 342.464 3.86439 334.021 18.1613 320.473C32.4582 306.925 48.8194 310.972 67.2448 332.614C85.6702 354.255 102.076 365.53 116.462 366.438C130.848 367.347 143.076 372.825 153.147 382.875C163.218 392.924 183.611 397.845 214.326 397.637C245.042 397.429 262.703 407.091 267.31 426.621C271.917 446.152 276.198 465.675 280.154 485.192C284.109 504.709 272.228 518.368 244.513 526.169C216.797 533.97 209.853 552.165 223.681 580.755C237.509 609.345 234.803 627.63 215.564 635.608C196.324 643.586 175.601 644.246 153.395 637.587C131.189 630.928 111.479 631.183 94.2669 638.354C77.0546 645.524 57.7326 649.493 36.3008 650.259C14.8691 651.025 -3.4672 643.84 -18.7079 628.702C-33.9487 613.565 -39.761 594.495 -36.1447 571.493C-32.5284 548.491 -37.2363 531.266 -50.2685 519.819C-63.3007 508.372 -64.4897 495.897 -53.8356 482.394C-43.1814 468.892 -47.2584 451.377 -66.0666 429.849C-84.8747 408.321 -89.2841 389.766 -79.2946 374.185Z" fill="#EEABA8"/>
</g>
<defs>
<filter id="filter0_i_35_539" x="-306.087" y="88.8135" width="811.687" height="820.313" filterUnits="userSpaceOnUse" color-interpolation-filters="sRGB">
<feFlood flood-opacity="0" result="BackgroundImageFix"/>
<feBlend mode="normal" in="SourceGraphic" in2="BackgroundImageFix" result="shape"/>
<feColorMatrix in="SourceAlpha" type="matrix" values="0 0 0 0 0 0 0 0 0 0 0 0 0 0 0 0 0 0 127 0" result="hardAlpha"/>
<feOffset dx="-31" dy="35"/>
<feGaussianBlur stdDeviation="25"/>
<feComposite in2="hardAlpha" operator="arithmetic" k2="-1" k3="1"/>
<feColorMatrix type="matrix" values="0 0 0 0 0 0 0 0 0 0 0 0 0 0 0 0 0 0 0.5 0"/>
<feBlend mode="normal" in2="shape" result="effect1_innerShadow_35_539"/>
</filter>
<filter id="filter1_i_35_539" x="-232.37" y="202.652" width="645.239" height="602.656" filterUnits="userSpaceOnUse" color-interpolation-filters="sRGB">
<feFlood flood-opacity="0" result="BackgroundImageFix"/>
<feBlend mode="normal" in="SourceGraphic" in2="BackgroundImageFix" result="shape"/>
<feColorMatrix in="SourceAlpha" type="matrix" values="0 0 0 0 0 0 0 0 0 0 0 0 0 0 0 0 0 0 127 0" result="hardAlpha"/>
<feOffset dx="-31" dy="35"/>
<feGaussianBlur stdDeviation="25"/>
<feComposite in2="hardAlpha" operator="arithmetic" k2="-1" k3="1"/>
<feColorMatrix type="matrix" values="0 0 0 0 0 0 0 0 0 0 0 0 0 0 0 0 0 0 0.5 0"/>
<feBlend mode="normal" in2="shape" result="effect1_innerShadow_35_539"/>
</filter>
<filter id="filter2_i_35_539" x="-115.492" y="312.649" width="396.387" height="372.665" filterUnits="userSpaceOnUse" color-interpolation-filters="sRGB">
<feFlood flood-opacity="0" result="BackgroundImageFix"/>
<feBlend mode="normal" in="SourceGraphic" in2="BackgroundImageFix" result="shape"/>
<feColorMatrix in="SourceAlpha" type="matrix" values="0 0 0 0 0 0 0 0 0 0 0 0 0 0 0 0 0 0 127 0" result="hardAlpha"/>
<feOffset dx="-31" dy="35"/>
<feGaussianBlur stdDeviation="25"/>
<feComposite in2="hardAlpha" operator="arithmetic" k2="-1" k3="1"/>
<feColorMatrix type="matrix" values="0 0 0 0 0 0 0 0 0 0 0 0 0 0 0 0 0 0 0.5 0"/>
<feBlend mode="normal" in2="shape" result="effect1_innerShadow_35_539"/>
</filter>
</defs>
</svg>
