<svg width="592" height="563" viewBox="0 0 592 563" fill="none" xmlns="http://www.w3.org/2000/svg">
<g filter="url(#filter0_i_35_531)">
<path d="M-262.078 243.141C-238.943 205.946 -205.21 182.471 -160.879 172.717C-116.547 162.962 -78.2547 141.64 -46.001 108.75C-13.7471 75.8601 21.2494 83.6648 58.9884 132.164C96.7275 180.663 131.113 205.264 162.144 205.967C193.175 206.669 219.091 218.207 239.893 240.579C260.694 262.951 304.327 272.392 370.791 268.902C437.255 265.412 474.514 286.14 482.568 331.085C490.622 376.031 497.972 420.992 504.617 465.969C511.261 510.947 484.224 543.858 423.505 564.705C362.786 585.551 345.984 628.525 373.098 693.625C400.212 758.726 392.568 801.491 350.167 821.92C307.766 842.348 262.873 845.91 215.488 832.606C168.104 819.302 125.443 821.826 87.5074 840.178C49.5713 858.531 7.38502 869.647 -39.0515 873.526C-85.488 877.406 -124.45 862.499 -155.937 828.806C-187.423 795.113 -198.129 751.357 -188.054 697.537C-177.979 643.716 -186.477 604.14 -213.548 578.808C-240.618 553.476 -241.969 524.597 -217.6 492.169C-193.23 459.741 -200.335 419.428 -238.913 371.23C-277.491 323.032 -285.213 280.335 -262.078 243.141Z" fill="#2C2220"/>
</g>
<g filter="url(#filter1_i_35_531)">
<path d="M-192.632 306.105C-175.839 279.911 -150.344 264.007 -116.147 258.392C-81.9502 252.777 -52.8345 238.581 -28.7999 215.806C-4.76535 193.03 22.7388 199.833 53.7126 236.214C84.6863 272.596 112.265 291.55 136.449 293.076C160.633 294.603 181.19 303.813 198.119 320.706C215.049 337.6 249.331 345.872 300.965 345.522C352.6 345.172 382.29 361.413 390.034 394.246C397.779 427.079 404.975 459.9 411.623 492.71C418.271 525.52 398.299 548.483 351.707 561.598C305.114 574.713 293.441 605.303 316.686 653.366C339.931 701.429 335.382 732.167 303.038 745.58C270.695 758.993 235.858 760.102 198.528 748.908C161.198 737.714 128.065 738.144 99.1297 750.199C70.1943 762.254 37.7124 768.926 1.68409 770.215C-34.3443 771.504 -65.1686 759.425 -90.789 733.977C-116.409 708.53 -126.18 676.472 -120.1 637.802C-114.02 599.133 -121.934 570.176 -143.841 550.932C-165.749 531.688 -167.747 510.717 -149.837 488.017C-131.926 465.318 -138.779 435.873 -170.396 399.682C-202.014 363.492 -209.425 332.299 -192.632 306.105Z" fill="#56433E"/>
</g>
<g filter="url(#filter2_i_35_531)">
<path d="M-79.2948 374.185C-69.3053 358.604 -54.1396 349.143 -33.7974 345.804C-13.4553 342.464 3.86427 334.02 18.1612 320.473C32.4581 306.925 48.8193 310.972 67.2447 332.613C85.67 354.255 102.076 365.53 116.462 366.438C130.848 367.346 143.076 372.825 153.147 382.874C163.218 392.923 183.611 397.844 214.326 397.637C245.042 397.429 262.703 407.09 267.31 426.621C271.917 446.151 276.198 465.675 280.153 485.191C284.109 504.708 272.228 518.367 244.512 526.168C216.797 533.969 209.853 552.165 223.681 580.755C237.509 609.345 234.803 627.629 215.563 635.607C196.324 643.586 175.601 644.245 153.395 637.586C131.188 630.927 111.479 631.183 94.2668 638.353C77.0545 645.524 57.7324 649.492 36.3007 650.258C14.8689 651.025 -3.46732 643.839 -18.7081 628.702C-33.9488 613.564 -39.7611 594.495 -36.1448 571.493C-32.5285 548.49 -37.2365 531.266 -50.2686 519.818C-63.3008 508.371 -64.4898 495.896 -53.8357 482.394C-43.1815 468.892 -47.2585 451.376 -66.0667 429.848C-84.8748 408.321 -89.2842 389.766 -79.2948 374.185Z" fill="#F2F1E9"/>
</g>
<defs>
<filter id="filter0_i_35_531" x="-306.087" y="88.8134" width="811.687" height="820.314" filterUnits="userSpaceOnUse" color-interpolation-filters="sRGB">
<feFlood flood-opacity="0" result="BackgroundImageFix"/>
<feBlend mode="normal" in="SourceGraphic" in2="BackgroundImageFix" result="shape"/>
<feColorMatrix in="SourceAlpha" type="matrix" values="0 0 0 0 0 0 0 0 0 0 0 0 0 0 0 0 0 0 127 0" result="hardAlpha"/>
<feOffset dx="-31" dy="35"/>
<feGaussianBlur stdDeviation="25"/>
<feComposite in2="hardAlpha" operator="arithmetic" k2="-1" k3="1"/>
<feColorMatrix type="matrix" values="0 0 0 0 0 0 0 0 0 0 0 0 0 0 0 0 0 0 0.5 0"/>
<feBlend mode="normal" in2="shape" result="effect1_innerShadow_35_531"/>
</filter>
<filter id="filter1_i_35_531" x="-232.37" y="202.653" width="645.239" height="602.656" filterUnits="userSpaceOnUse" color-interpolation-filters="sRGB">
<feFlood flood-opacity="0" result="BackgroundImageFix"/>
<feBlend mode="normal" in="SourceGraphic" in2="BackgroundImageFix" result="shape"/>
<feColorMatrix in="SourceAlpha" type="matrix" values="0 0 0 0 0 0 0 0 0 0 0 0 0 0 0 0 0 0 127 0" result="hardAlpha"/>
<feOffset dx="-31" dy="35"/>
<feGaussianBlur stdDeviation="25"/>
<feComposite in2="hardAlpha" operator="arithmetic" k2="-1" k3="1"/>
<feColorMatrix type="matrix" values="0 0 0 0 0 0 0 0 0 0 0 0 0 0 0 0 0 0 0.33 0"/>
<feBlend mode="normal" in2="shape" result="effect1_innerShadow_35_531"/>
</filter>
<filter id="filter2_i_35_531" x="-115.493" y="312.649" width="396.387" height="372.665" filterUnits="userSpaceOnUse" color-interpolation-filters="sRGB">
<feFlood flood-opacity="0" result="BackgroundImageFix"/>
<feBlend mode="normal" in="SourceGraphic" in2="BackgroundImageFix" result="shape"/>
<feColorMatrix in="SourceAlpha" type="matrix" values="0 0 0 0 0 0 0 0 0 0 0 0 0 0 0 0 0 0 127 0" result="hardAlpha"/>
<feOffset dx="-31" dy="35"/>
<feGaussianBlur stdDeviation="25"/>
<feComposite in2="hardAlpha" operator="arithmetic" k2="-1" k3="1"/>
<feColorMatrix type="matrix" values="0 0 0 0 0 0 0 0 0 0 0 0 0 0 0 0 0 0 0.5 0"/>
<feBlend mode="normal" in2="shape" result="effect1_innerShadow_35_531"/>
</filter>
</defs>
</svg>
