<svg width="458" height="135" viewBox="0 0 458 135" fill="none" xmlns="http://www.w3.org/2000/svg">
<g filter="url(#filter0_i_17_251)">
<path d="M81.7917 29.56C81.7917 35 79.8717 39.704 76.0317 43.672C72.1917 47.576 66.5917 50.392 59.2317 52.12C63.1997 53.208 66.2078 55 68.2558 57.496C70.3038 59.928 71.3278 62.744 71.3278 65.944C71.3278 71 69.7278 75.384 66.5278 79.096C63.3917 82.808 58.7837 85.688 52.7037 87.736C46.6237 89.72 39.2957 90.712 30.7197 90.712C27.5197 90.712 24.9597 90.616 23.0397 90.424C22.9757 92.216 22.2077 93.56 20.7357 94.456C19.2637 95.352 17.3757 95.8 15.0717 95.8C12.7677 95.8 11.1677 95.288 10.2717 94.264C9.43975 93.24 9.08775 91.736 9.21575 89.752C9.79175 80.792 10.9117 71.416 12.5757 61.624C14.2397 51.768 16.3517 42.264 18.9117 33.112C19.3597 31.512 20.2557 30.392 21.5997 29.752C22.9437 29.112 24.7037 28.792 26.8797 28.792C30.7837 28.792 32.7357 29.88 32.7357 32.056C32.7357 32.952 32.5437 33.976 32.1597 35.128C30.4957 40.12 28.8317 46.904 27.1677 55.48C25.5037 63.992 24.3197 72.12 23.6157 79.864C26.6877 80.12 29.1837 80.248 31.1037 80.248C40.0637 80.248 46.6237 78.968 50.7837 76.408C55.0077 73.784 57.1197 70.456 57.1197 66.424C57.1197 63.608 55.9037 61.24 53.4717 59.32C51.1037 57.4 47.1037 56.344 41.4717 56.152C40.1917 56.088 39.2957 55.768 38.7837 55.192C38.2717 54.616 38.0157 53.688 38.0157 52.408C38.0157 50.552 38.3997 49.048 39.1677 47.896C39.9357 46.744 41.3437 46.136 43.3917 46.072C47.9357 45.944 52.0317 45.272 55.6797 44.056C59.3917 42.84 62.3037 41.144 64.4157 38.968C66.5277 36.728 67.5837 34.136 67.5837 31.192C67.5837 27.48 65.7597 24.568 62.1117 22.456C58.4637 20.28 52.8637 19.192 45.3117 19.192C38.4637 19.192 31.8397 20.088 25.4397 21.88C19.0397 23.608 13.5997 25.816 9.11975 28.504C7.07175 29.72 5.34375 30.328 3.93575 30.328C2.78375 30.328 1.88775 29.944 1.24775 29.176C0.671745 28.344 0.383745 27.32 0.383745 26.104C0.383745 24.504 0.703745 23.128 1.34375 21.976C2.04775 20.824 3.67975 19.512 6.23975 18.04C11.6157 14.968 17.9197 12.568 25.1517 10.84C32.3837 9.112 39.7757 8.248 47.3277 8.248C58.9117 8.248 67.5518 10.2 73.2477 14.104C78.9437 18.008 81.7917 23.16 81.7917 29.56ZM125.582 69.592C126.414 69.592 127.054 69.976 127.502 70.744C128.014 71.512 128.27 72.568 128.27 73.912C128.27 76.472 127.662 78.456 126.446 79.864C123.694 83.256 120.686 86.04 117.422 88.216C114.222 90.392 110.574 91.48 106.478 91.48C100.846 91.48 96.654 88.92 93.902 83.8C91.214 78.68 89.87 72.056 89.87 63.928C89.87 56.12 90.862 47.224 92.846 37.24C94.894 27.256 97.87 18.68 101.774 11.512C105.742 4.34399 110.446 0.759995 115.886 0.759995C118.958 0.759995 121.358 2.2 123.086 5.08C124.878 7.896 125.774 11.96 125.774 17.272C125.774 24.888 123.662 33.72 119.438 43.768C115.214 53.816 109.486 63.768 102.254 73.624C102.702 76.248 103.438 78.136 104.462 79.288C105.486 80.376 106.83 80.92 108.494 80.92C111.118 80.92 113.422 80.184 115.406 78.712C117.39 77.176 119.918 74.584 122.99 70.936C123.758 70.04 124.622 69.592 125.582 69.592ZM113.774 10.264C112.302 10.264 110.638 12.92 108.782 18.232C106.926 23.544 105.294 30.136 103.886 38.008C102.478 45.88 101.71 53.432 101.582 60.664C106.126 53.176 109.742 45.688 112.43 38.2C115.118 30.648 116.462 23.768 116.462 17.56C116.462 12.696 115.566 10.264 113.774 10.264ZM137.022 91.48C134.142 91.48 131.774 90.168 129.918 87.544C128.126 84.856 127.23 81.528 127.23 77.56C127.23 72.76 127.55 68.376 128.19 64.408C128.83 60.376 129.886 56.12 131.358 51.64C131.998 49.72 132.894 48.344 134.046 47.512C135.198 46.68 137.022 46.264 139.518 46.264C140.926 46.264 141.886 46.488 142.398 46.936C142.974 47.384 143.262 48.056 143.262 48.952C143.262 49.464 142.91 51.192 142.206 54.136C141.566 56.504 141.054 58.648 140.67 60.568C139.39 67.288 138.75 71.768 138.75 74.008C138.75 75.352 138.91 76.312 139.23 76.888C139.55 77.4 140.062 77.656 140.766 77.656C141.726 77.656 142.91 76.696 144.318 74.776C145.79 72.856 147.326 69.944 148.926 66.04C150.59 62.136 152.19 57.336 153.726 51.64C154.238 49.72 155.006 48.344 156.03 47.512C157.118 46.68 158.718 46.264 160.831 46.264C162.303 46.264 163.326 46.456 163.902 46.84C164.478 47.16 164.766 47.8 164.766 48.76C164.766 50.36 163.966 54.744 162.367 61.912C160.574 70.104 159.678 75.16 159.678 77.08C159.678 78.296 159.934 79.256 160.446 79.96C160.958 80.6 161.63 80.92 162.462 80.92C163.743 80.92 165.247 80.152 166.974 78.616C168.766 77.016 171.134 74.456 174.078 70.936C174.847 70.04 175.711 69.592 176.67 69.592C177.503 69.592 178.142 69.976 178.59 70.744C179.102 71.512 179.358 72.568 179.358 73.912C179.358 76.472 178.75 78.456 177.535 79.864C174.783 83.256 171.807 86.04 168.607 88.216C165.47 90.392 161.886 91.48 157.854 91.48C154.782 91.48 152.51 90.296 151.038 87.928C149.63 85.56 148.926 82.232 148.926 77.944C147.838 82.296 146.206 85.656 144.03 88.024C141.854 90.328 139.518 91.48 137.022 91.48ZM221.11 69.592C221.942 69.592 222.582 69.976 223.03 70.744C223.542 71.512 223.798 72.568 223.798 73.912C223.798 76.472 223.19 78.456 221.974 79.864C219.606 82.744 216.246 85.4 211.894 87.832C207.606 90.264 202.998 91.48 198.07 91.48C191.35 91.48 186.134 89.656 182.422 86.008C178.71 82.36 176.854 77.368 176.854 71.032C176.854 66.616 177.782 62.52 179.638 58.744C181.494 54.904 184.054 51.864 187.318 49.624C190.646 47.384 194.39 46.264 198.55 46.264C202.262 46.264 205.238 47.384 207.478 49.624C209.718 51.8 210.838 54.776 210.838 58.552C210.838 62.968 209.238 66.776 206.038 69.976C202.902 73.112 197.558 75.608 190.006 77.464C191.606 80.408 194.646 81.88 199.126 81.88C202.006 81.88 205.27 80.888 208.918 78.904C212.63 76.856 215.83 74.2 218.518 70.936C219.286 70.04 220.15 69.592 221.11 69.592ZM196.918 55.672C194.55 55.672 192.534 57.048 190.87 59.8C189.27 62.552 188.47 65.88 188.47 69.784V69.976C192.246 69.08 195.222 67.736 197.398 65.944C199.574 64.152 200.662 62.072 200.662 59.704C200.662 58.488 200.31 57.528 199.606 56.824C198.966 56.056 198.07 55.672 196.918 55.672ZM273.774 61.528C274.606 61.528 275.246 61.944 275.694 62.776C276.142 63.608 276.366 64.664 276.366 65.944C276.366 67.544 276.142 68.792 275.694 69.688C275.246 70.52 274.542 71.096 273.582 71.416C269.742 72.76 265.518 73.528 260.91 73.72C259.63 79.032 257.198 83.32 253.614 86.584C250.094 89.848 246.19 91.48 241.902 91.48C235.438 91.48 230.734 89.016 227.79 84.088C224.846 79.16 223.374 72.024 223.374 62.68C223.374 54.424 224.398 45.464 226.446 35.8C228.494 26.072 231.47 17.816 235.374 11.032C239.342 4.18399 244.046 0.759995 249.486 0.759995C252.43 0.759995 254.798 2.04 256.59 4.6C258.382 7.09599 259.278 10.36 259.278 14.392C259.278 19.64 258.286 24.856 256.302 30.04C254.318 35.224 251.022 40.664 246.414 46.36C250.702 46.68 254.19 48.472 256.878 51.736C259.566 54.936 261.166 58.904 261.678 63.64C264.686 63.448 268.27 62.808 272.43 61.72C272.814 61.592 273.262 61.528 273.774 61.528ZM247.278 10.264C245.998 10.264 244.59 12.184 243.054 16.024C241.582 19.8 240.206 24.952 238.926 31.48C237.646 38.008 236.686 45.144 236.046 52.888C240.27 45.144 243.63 38.328 246.126 32.44C248.686 26.488 249.966 21.208 249.966 16.6C249.966 14.552 249.71 12.984 249.198 11.896C248.75 10.808 248.11 10.264 247.278 10.264ZM242.286 81.304C244.27 81.304 246.03 80.472 247.566 78.808C249.102 77.144 250.126 74.744 250.638 71.608C248.654 70.264 247.118 68.504 246.03 66.328C245.006 64.152 244.494 61.848 244.494 59.416C244.494 58.52 244.622 57.304 244.878 55.768H244.59C241.966 55.768 239.758 57.08 237.966 59.704C236.238 62.264 235.374 65.72 235.374 70.072C235.374 73.72 236.046 76.504 237.39 78.424C238.798 80.344 240.43 81.304 242.286 81.304ZM317.613 69.592C318.445 69.592 319.085 69.976 319.533 70.744C320.045 71.512 320.301 72.568 320.301 73.912C320.301 76.472 319.693 78.456 318.477 79.864C316.109 82.744 312.749 85.4 308.397 87.832C304.109 90.264 299.501 91.48 294.573 91.48C287.853 91.48 282.637 89.656 278.925 86.008C275.213 82.36 273.357 77.368 273.357 71.032C273.357 66.616 274.285 62.52 276.141 58.744C277.997 54.904 280.557 51.864 283.821 49.624C287.149 47.384 290.893 46.264 295.053 46.264C298.765 46.264 301.741 47.384 303.981 49.624C306.221 51.8 307.341 54.776 307.341 58.552C307.341 62.968 305.741 66.776 302.541 69.976C299.405 73.112 294.061 75.608 286.509 77.464C288.109 80.408 291.149 81.88 295.629 81.88C298.509 81.88 301.773 80.888 305.421 78.904C309.133 76.856 312.333 74.2 315.021 70.936C315.789 70.04 316.653 69.592 317.613 69.592ZM293.421 55.672C291.053 55.672 289.037 57.048 287.373 59.8C285.773 62.552 284.973 65.88 284.973 69.784V69.976C288.749 69.08 291.725 67.736 293.901 65.944C296.077 64.152 297.165 62.072 297.165 59.704C297.165 58.488 296.813 57.528 296.109 56.824C295.469 56.056 294.573 55.672 293.421 55.672ZM326.02 91.48C323.588 91.48 321.86 90.2 320.836 87.64C319.876 85.08 319.396 80.984 319.396 75.352C319.396 67.032 320.58 59.128 322.948 51.64C323.524 49.784 324.452 48.44 325.732 47.608C327.076 46.712 328.932 46.264 331.3 46.264C332.58 46.264 333.476 46.424 333.988 46.744C334.5 47.064 334.756 47.672 334.756 48.568C334.756 49.592 334.276 51.896 333.316 55.48C332.676 58.04 332.164 60.28 331.78 62.2C331.396 64.12 331.076 66.488 330.82 69.304C332.932 63.8 335.3 59.32 337.924 55.864C340.548 52.408 343.108 49.944 345.604 48.472C348.164 47 350.5 46.264 352.612 46.264C356.772 46.264 358.852 48.344 358.852 52.504C358.852 53.336 358.564 55.352 357.988 58.552C357.476 61.112 357.22 62.712 357.22 63.352C357.22 65.592 358.02 66.712 359.62 66.712C361.412 66.712 363.716 65.304 366.532 62.488C367.364 61.656 368.228 61.24 369.124 61.24C369.956 61.24 370.596 61.624 371.044 62.392C371.556 63.096 371.812 64.056 371.812 65.272C371.812 67.64 371.172 69.496 369.892 70.84C368.1 72.696 365.988 74.296 363.556 75.64C361.188 76.92 358.66 77.56 355.972 77.56C352.58 77.56 349.988 76.696 348.196 74.968C346.468 73.24 345.604 70.904 345.604 67.96C345.604 67 345.7 66.04 345.892 65.08C346.02 63.8 346.084 62.936 346.084 62.488C346.084 61.464 345.732 60.952 345.028 60.952C344.068 60.952 342.788 62.04 341.188 64.216C339.652 66.328 338.116 69.144 336.58 72.664C335.044 76.184 333.796 79.896 332.836 83.8C332.132 86.808 331.3 88.856 330.34 89.944C329.444 90.968 328.004 91.48 326.02 91.48ZM376.428 91.48C373.996 91.48 372.268 90.2 371.244 87.64C370.284 85.08 369.804 80.984 369.804 75.352C369.804 67.032 370.988 59.128 373.356 51.64C373.932 49.784 374.86 48.44 376.14 47.608C377.484 46.712 379.34 46.264 381.708 46.264C382.988 46.264 383.884 46.424 384.396 46.744C384.908 47.064 385.164 47.672 385.164 48.568C385.164 49.592 384.684 51.896 383.724 55.48C383.084 58.04 382.572 60.28 382.188 62.2C381.804 64.12 381.484 66.488 381.228 69.304C383.34 63.8 385.708 59.32 388.332 55.864C390.956 52.408 393.516 49.944 396.012 48.472C398.572 47 400.908 46.264 403.02 46.264C407.18 46.264 409.26 48.344 409.26 52.504C409.26 53.336 408.972 55.352 408.396 58.552C407.884 61.112 407.628 62.712 407.628 63.352C407.628 65.592 408.428 66.712 410.028 66.712C411.82 66.712 414.124 65.304 416.94 62.488C417.772 61.656 418.636 61.24 419.532 61.24C420.364 61.24 421.004 61.624 421.452 62.392C421.964 63.096 422.22 64.056 422.22 65.272C422.22 67.64 421.58 69.496 420.3 70.84C418.508 72.696 416.396 74.296 413.964 75.64C411.596 76.92 409.068 77.56 406.38 77.56C402.988 77.56 400.396 76.696 398.604 74.968C396.876 73.24 396.012 70.904 396.012 67.96C396.012 67 396.108 66.04 396.3 65.08C396.428 63.8 396.492 62.936 396.492 62.488C396.492 61.464 396.14 60.952 395.436 60.952C394.476 60.952 393.196 62.04 391.596 64.216C390.06 66.328 388.524 69.144 386.988 72.664C385.452 76.184 384.204 79.896 383.244 83.8C382.54 86.808 381.708 88.856 380.748 89.944C379.852 90.968 378.412 91.48 376.428 91.48ZM453.619 46.264C455.091 46.264 456.115 46.456 456.691 46.84C457.267 47.224 457.555 47.864 457.555 48.76C457.555 50.296 456.723 55.768 455.059 65.176C453.587 74.2 452.723 79.544 452.467 81.208C450.099 97.656 446.835 110.68 442.675 120.28C438.515 129.88 432.979 134.68 426.067 134.68C422.803 134.68 420.147 133.656 418.099 131.608C416.051 129.624 415.027 127 415.027 123.736C415.027 120.728 415.699 117.656 417.043 114.52C418.451 111.384 421.011 107.768 424.723 103.672C428.499 99.64 433.811 95 440.659 89.752L440.947 87.544C441.395 85.176 441.907 81.784 442.483 77.368C441.203 81.976 439.411 85.496 437.107 87.928C434.803 90.296 432.371 91.48 429.811 91.48C426.931 91.48 424.563 90.168 422.707 87.544C420.915 84.856 420.019 81.528 420.019 77.56C420.019 72.76 420.339 68.376 420.979 64.408C421.619 60.376 422.675 56.12 424.147 51.64C424.787 49.72 425.683 48.344 426.835 47.512C427.987 46.68 429.811 46.264 432.307 46.264C433.715 46.264 434.675 46.488 435.187 46.936C435.763 47.384 436.051 48.056 436.051 48.952C436.051 49.464 435.699 51.192 434.995 54.136C434.355 56.504 433.843 58.648 433.459 60.568C432.947 63.192 432.499 65.72 432.115 68.152C431.731 70.52 431.539 72.472 431.539 74.008C431.539 76.44 432.211 77.656 433.555 77.656C434.515 77.656 435.699 76.696 437.107 74.776C438.579 72.856 440.115 69.944 441.715 66.04C443.379 62.136 444.979 57.336 446.515 51.64C447.027 49.72 447.795 48.344 448.819 47.512C449.907 46.68 451.507 46.264 453.619 46.264ZM427.123 125.368C428.723 125.368 430.515 123.512 432.499 119.8C434.483 116.088 436.467 109.912 438.451 101.272C433.523 105.432 429.939 109.208 427.699 112.6C425.523 116.056 424.435 119.064 424.435 121.624C424.435 122.712 424.627 123.608 425.011 124.312C425.459 125.016 426.163 125.368 427.123 125.368Z" fill="#774882"/>
</g>
<defs>
<filter id="filter0_i_17_251" x="0.383789" y="0.759766" width="457.172" height="139.92" filterUnits="userSpaceOnUse" color-interpolation-filters="sRGB">
<feFlood flood-opacity="0" result="BackgroundImageFix"/>
<feBlend mode="normal" in="SourceGraphic" in2="BackgroundImageFix" result="shape"/>
<feColorMatrix in="SourceAlpha" type="matrix" values="0 0 0 0 0 0 0 0 0 0 0 0 0 0 0 0 0 0 127 0" result="hardAlpha"/>
<feOffset dy="6"/>
<feGaussianBlur stdDeviation="4.6"/>
<feComposite in2="hardAlpha" operator="arithmetic" k2="-1" k3="1"/>
<feColorMatrix type="matrix" values="0 0 0 0 0 0 0 0 0 0 0 0 0 0 0 0 0 0 0.5 0"/>
<feBlend mode="normal" in2="shape" result="effect1_innerShadow_17_251"/>
</filter>
</defs>
</svg>
