<svg width="215" height="83" viewBox="0 0 215 83" fill="none" xmlns="http://www.w3.org/2000/svg">
<g filter="url(#filter0_i_17_292)">
<path d="M30.7438 82.48C25.0477 82.48 19.8957 81.2 15.2877 78.64C10.7437 76.08 7.12775 72.336 4.43975 67.408C1.75175 62.416 0.407748 56.464 0.407748 49.552C0.407748 39.824 2.16775 31.248 5.68775 23.824C9.27175 16.4 14.1037 10.672 20.1837 6.64C26.3278 2.608 33.1118 0.591995 40.5358 0.591995C46.2318 0.591995 51.3518 1.872 55.8958 4.432C60.5038 6.992 64.1518 10.768 66.8398 15.76C69.5278 20.688 70.8718 26.608 70.8718 33.52C70.8718 43.248 69.0798 51.824 65.4958 59.248C61.9758 66.672 57.1438 72.4 50.9998 76.432C44.9198 80.464 38.1678 82.48 30.7438 82.48ZM31.7037 71.152C36.6958 71.152 41.0798 69.616 44.8557 66.544C48.6957 63.472 51.6397 59.216 53.6877 53.776C55.7358 48.272 56.7598 42.064 56.7598 35.152C56.7598 27.536 55.1597 21.776 51.9597 17.872C48.7597 13.904 44.6317 11.92 39.5758 11.92C34.6477 11.92 30.2957 13.456 26.5198 16.528C22.7437 19.536 19.7997 23.792 17.6877 29.296C15.5757 34.736 14.5197 40.944 14.5197 47.92C14.5197 55.536 16.1197 61.328 19.3197 65.296C22.5197 69.2 26.6477 71.152 31.7037 71.152ZM89.8452 82.48C87.4132 82.48 85.6852 81.2 84.6612 78.64C83.7012 76.08 83.2212 71.984 83.2212 66.352C83.2212 58.032 84.4052 50.128 86.7732 42.64C87.3492 40.784 88.2772 39.44 89.5572 38.608C90.9013 37.712 92.7573 37.264 95.1253 37.264C96.4053 37.264 97.3012 37.424 97.8133 37.744C98.3253 38.064 98.5813 38.672 98.5813 39.568C98.5813 40.592 98.1013 42.896 97.1413 46.48C96.5012 49.04 95.9892 51.28 95.6052 53.2C95.2213 55.12 94.9013 57.488 94.6453 60.304C96.7573 54.8 99.1253 50.32 101.749 46.864C104.373 43.408 106.933 40.944 109.429 39.472C111.989 38 114.325 37.264 116.437 37.264C120.597 37.264 122.677 39.344 122.677 43.504C122.677 44.336 122.389 46.352 121.813 49.552C121.301 52.112 121.045 53.712 121.045 54.352C121.045 56.592 121.845 57.712 123.445 57.712C125.237 57.712 127.541 56.304 130.357 53.488C131.189 52.656 132.053 52.24 132.949 52.24C133.781 52.24 134.421 52.624 134.869 53.392C135.381 54.096 135.637 55.056 135.637 56.272C135.637 58.64 134.997 60.496 133.717 61.84C131.925 63.696 129.813 65.296 127.381 66.64C125.013 67.92 122.485 68.56 119.797 68.56C116.405 68.56 113.813 67.696 112.021 65.968C110.293 64.24 109.429 61.904 109.429 58.96C109.429 58 109.525 57.04 109.717 56.08C109.845 54.8 109.909 53.936 109.909 53.488C109.909 52.464 109.557 51.952 108.853 51.952C107.893 51.952 106.613 53.04 105.013 55.216C103.477 57.328 101.941 60.144 100.405 63.664C98.8693 67.184 97.6213 70.896 96.6613 74.8C95.9573 77.808 95.1252 79.856 94.1652 80.944C93.2692 81.968 91.8292 82.48 89.8452 82.48ZM176.253 60.592C177.085 60.592 177.725 60.976 178.173 61.744C178.685 62.512 178.941 63.568 178.941 64.912C178.941 67.472 178.333 69.456 177.117 70.864C174.749 73.744 171.389 76.4 167.037 78.832C162.749 81.264 158.141 82.48 153.213 82.48C146.493 82.48 141.277 80.656 137.565 77.008C133.853 73.36 131.997 68.368 131.997 62.032C131.997 57.616 132.925 53.52 134.781 49.744C136.637 45.904 139.197 42.864 142.461 40.624C145.789 38.384 149.533 37.264 153.693 37.264C157.405 37.264 160.381 38.384 162.621 40.624C164.861 42.8 165.981 45.776 165.981 49.552C165.981 53.968 164.381 57.776 161.181 60.976C158.045 64.112 152.701 66.608 145.149 68.464C146.749 71.408 149.789 72.88 154.269 72.88C157.149 72.88 160.413 71.888 164.061 69.904C167.773 67.856 170.973 65.2 173.661 61.936C174.429 61.04 175.293 60.592 176.253 60.592ZM152.061 46.672C149.693 46.672 147.677 48.048 146.013 50.8C144.413 53.552 143.613 56.88 143.613 60.784V60.976C147.389 60.08 150.365 58.736 152.541 56.944C154.717 55.152 155.805 53.072 155.805 50.704C155.805 49.488 155.453 48.528 154.749 47.824C154.109 47.056 153.213 46.672 152.061 46.672ZM194.068 82.48C190.292 82.48 187.06 81.552 184.372 79.696C181.748 77.776 179.764 75.28 178.42 72.208C177.076 69.136 176.404 65.84 176.404 62.32C176.404 57.456 177.3 53.136 179.092 49.36C180.948 45.52 183.444 42.544 186.58 40.432C189.716 38.256 193.236 37.168 197.14 37.168C200.916 37.168 204.148 38.128 206.836 40.048C209.524 41.904 211.54 44.368 212.884 47.44C214.228 50.512 214.9 53.808 214.9 57.328C214.9 62.192 213.972 66.544 212.116 70.384C210.26 74.16 207.732 77.136 204.532 79.312C201.396 81.424 197.908 82.48 194.068 82.48ZM195.124 72.112C197.3 72.112 199.124 70.928 200.596 68.56C202.132 66.192 202.9 62.736 202.9 58.192C202.9 54.672 202.26 52.016 200.98 50.224C199.7 48.432 198.164 47.536 196.372 47.536C194.068 47.536 192.148 48.72 190.612 51.088C189.14 53.392 188.404 56.848 188.404 61.456C188.404 65.104 189.044 67.792 190.324 69.52C191.604 71.248 193.204 72.112 195.124 72.112Z" fill="#56433E"/>
</g>
<defs>
<filter id="filter0_i_17_292" x="0.407715" y="0.591995" width="214.493" height="87.888" filterUnits="userSpaceOnUse" color-interpolation-filters="sRGB">
<feFlood flood-opacity="0" result="BackgroundImageFix"/>
<feBlend mode="normal" in="SourceGraphic" in2="BackgroundImageFix" result="shape"/>
<feColorMatrix in="SourceAlpha" type="matrix" values="0 0 0 0 0 0 0 0 0 0 0 0 0 0 0 0 0 0 127 0" result="hardAlpha"/>
<feOffset dy="6"/>
<feGaussianBlur stdDeviation="4.6"/>
<feComposite in2="hardAlpha" operator="arithmetic" k2="-1" k3="1"/>
<feColorMatrix type="matrix" values="0 0 0 0 0 0 0 0 0 0 0 0 0 0 0 0 0 0 0.5 0"/>
<feBlend mode="normal" in2="shape" result="effect1_innerShadow_17_292"/>
</filter>
</defs>
</svg>
