<svg width="531" height="135" viewBox="0 0 531 135" fill="none" xmlns="http://www.w3.org/2000/svg">
<g filter="url(#filter0_i_17_350)">
<path d="M28.7458 91.768C20.2338 91.768 13.4178 90.168 8.29776 86.968C3.17776 83.704 0.61776 78.744 0.61776 72.088C0.61776 68.568 1.22576 65.88 2.44176 64.024C3.65776 62.168 5.44976 61.24 7.81776 61.24C9.54576 61.24 10.9538 61.688 12.0418 62.584C13.1298 63.48 13.6738 64.632 13.6738 66.04C13.6738 67.32 13.5778 68.44 13.3858 69.4C13.3858 69.656 13.3218 70.104 13.1938 70.744C13.1298 71.384 13.0978 72.056 13.0978 72.76C13.0978 75.64 14.5378 77.784 17.4178 79.192C20.3618 80.6 24.4578 81.304 29.7058 81.304C35.1458 81.304 39.4018 80.344 42.4738 78.424C45.5458 76.44 47.0818 73.688 47.0818 70.168C47.0818 67.992 46.3778 66.136 44.9698 64.6C43.5618 63 41.8018 61.688 39.6898 60.664C37.5778 59.576 34.6018 58.264 30.7618 56.728C25.8338 54.808 21.8018 52.984 18.6658 51.256C15.5938 49.528 12.9378 47.192 10.6978 44.248C8.52176 41.24 7.43376 37.528 7.43376 33.112C7.43376 28.504 8.64976 24.408 11.0818 20.824C13.5778 17.24 17.1298 14.456 21.7378 12.472C26.4098 10.488 31.8818 9.496 38.1538 9.496C42.8258 9.496 47.1138 10.2 51.0178 11.608C54.9218 12.952 58.0258 15.032 60.3298 17.848C62.6978 20.664 63.8818 24.12 63.8818 28.216C63.8818 32.248 63.2738 35.288 62.0578 37.336C60.8418 39.384 59.0498 40.408 56.6818 40.408C55.0178 40.408 53.6098 39.896 52.4578 38.872C51.3698 37.848 50.8258 36.632 50.8258 35.224C50.8258 34.008 50.9218 32.888 51.1138 31.864C51.3058 29.944 51.4018 28.728 51.4018 28.216C51.4018 25.528 50.0898 23.48 47.4658 22.072C44.8418 20.664 41.5778 19.96 37.6738 19.96C32.1698 19.96 27.9458 20.984 25.0018 23.032C22.1218 25.016 20.6818 27.832 20.6818 31.48C20.6818 33.912 21.4178 35.992 22.8898 37.72C24.4258 39.448 26.3138 40.888 28.5538 42.04C30.7938 43.192 33.9298 44.568 37.9618 46.168C42.8258 48.152 46.7298 49.944 49.6738 51.544C52.6178 53.144 55.1138 55.32 57.1618 58.072C59.2738 60.824 60.3298 64.216 60.3298 68.248C60.3298 75.8 57.4498 81.624 51.6898 85.72C45.9938 89.752 38.3458 91.768 28.7458 91.768ZM117.123 69.592C117.955 69.592 118.595 69.976 119.043 70.744C119.555 71.512 119.811 72.568 119.811 73.912C119.811 76.472 119.203 78.456 117.987 79.864C115.235 83.256 112.227 86.04 108.963 88.216C105.699 90.392 101.955 91.48 97.7308 91.48C84.6748 91.48 78.1468 82.296 78.1468 63.928C78.1468 61.112 78.2428 58.264 78.4348 55.384H74.6908C72.7708 55.384 71.4588 55.032 70.7548 54.328C70.1148 53.624 69.7948 52.504 69.7948 50.968C69.7948 47.384 71.2348 45.592 74.1148 45.592H79.5868C80.6748 38.552 82.3388 32.12 84.5788 26.296C86.8188 20.472 89.5068 15.832 92.6428 12.376C95.8428 8.92 99.2668 7.192 102.915 7.192C105.603 7.192 107.715 8.376 109.251 10.744C110.787 13.112 111.555 16.088 111.555 19.672C111.555 29.592 107.395 38.232 99.0748 45.592H109.827C110.851 45.592 111.587 45.816 112.035 46.264C112.483 46.712 112.707 47.544 112.707 48.76C112.707 53.176 109.091 55.384 101.859 55.384H90.1468C90.0188 58.584 89.9548 61.08 89.9548 62.872C89.9548 69.528 90.7228 74.2 92.2588 76.888C93.8588 79.576 96.3548 80.92 99.7468 80.92C102.499 80.92 104.931 80.088 107.043 78.424C109.155 76.76 111.651 74.264 114.531 70.936C115.299 70.04 116.163 69.592 117.123 69.592ZM100.323 16.408C99.3628 16.408 98.2748 17.624 97.0588 20.056C95.9068 22.424 94.7868 25.752 93.6988 30.04C92.6748 34.264 91.8108 38.968 91.1068 44.152C94.8828 40.888 97.6988 37.24 99.5548 33.208C101.475 29.112 102.435 25.4 102.435 22.072C102.435 18.296 101.731 16.408 100.323 16.408ZM125.53 91.48C123.098 91.48 121.37 90.2 120.346 87.64C119.386 85.08 118.906 80.984 118.906 75.352C118.906 67.032 120.09 59.128 122.458 51.64C123.034 49.784 123.962 48.44 125.242 47.608C126.586 46.712 128.442 46.264 130.81 46.264C132.09 46.264 132.986 46.424 133.498 46.744C134.01 47.064 134.266 47.672 134.266 48.568C134.266 49.592 133.786 51.896 132.826 55.48C132.186 58.04 131.674 60.28 131.29 62.2C130.906 64.12 130.586 66.488 130.33 69.304C132.442 63.8 134.81 59.32 137.434 55.864C140.058 52.408 142.618 49.944 145.114 48.472C147.674 47 150.01 46.264 152.122 46.264C156.282 46.264 158.362 48.344 158.362 52.504C158.362 53.336 158.074 55.352 157.498 58.552C156.986 61.112 156.73 62.712 156.73 63.352C156.73 65.592 157.53 66.712 159.13 66.712C160.922 66.712 163.226 65.304 166.042 62.488C166.874 61.656 167.738 61.24 168.634 61.24C169.466 61.24 170.106 61.624 170.554 62.392C171.066 63.096 171.322 64.056 171.322 65.272C171.322 67.64 170.682 69.496 169.402 70.84C167.61 72.696 165.498 74.296 163.066 75.64C160.698 76.92 158.17 77.56 155.482 77.56C152.09 77.56 149.498 76.696 147.706 74.968C145.978 73.24 145.114 70.904 145.114 67.96C145.114 67 145.21 66.04 145.402 65.08C145.53 63.8 145.594 62.936 145.594 62.488C145.594 61.464 145.242 60.952 144.538 60.952C143.578 60.952 142.298 62.04 140.698 64.216C139.162 66.328 137.626 69.144 136.09 72.664C134.554 76.184 133.306 79.896 132.346 83.8C131.642 86.808 130.81 88.856 129.85 89.944C128.954 90.968 127.514 91.48 125.53 91.48ZM180.93 91.48C176.962 91.48 173.794 90.04 171.426 87.16C169.058 84.28 167.874 80.504 167.874 75.832C167.874 70.712 169.058 65.88 171.426 61.336C173.794 56.728 176.93 53.048 180.834 50.296C184.802 47.48 188.994 46.072 193.41 46.072C194.818 46.072 195.746 46.36 196.194 46.936C196.706 47.448 197.122 48.408 197.442 49.816C198.786 49.56 200.194 49.432 201.666 49.432C204.802 49.432 206.37 50.552 206.37 52.792C206.37 54.136 205.89 57.336 204.93 62.392C203.458 69.752 202.722 74.872 202.722 77.752C202.722 78.712 202.946 79.48 203.394 80.056C203.906 80.632 204.546 80.92 205.314 80.92C206.53 80.92 208.002 80.152 209.73 78.616C211.458 77.016 213.794 74.456 216.738 70.936C217.506 70.04 218.37 69.592 219.33 69.592C220.162 69.592 220.802 69.976 221.25 70.744C221.762 71.512 222.018 72.568 222.018 73.912C222.018 76.472 221.41 78.456 220.194 79.864C217.57 83.128 214.786 85.88 211.842 88.12C208.898 90.36 206.05 91.48 203.298 91.48C201.186 91.48 199.234 90.776 197.442 89.368C195.714 87.896 194.402 85.912 193.506 83.416C190.178 88.792 185.986 91.48 180.93 91.48ZM184.386 81.784C185.794 81.784 187.138 80.952 188.418 79.288C189.698 77.624 190.626 75.416 191.202 72.664L194.754 55C192.066 55.064 189.57 56.088 187.266 58.072C185.026 59.992 183.234 62.552 181.89 65.752C180.546 68.952 179.874 72.344 179.874 75.928C179.874 77.912 180.258 79.384 181.026 80.344C181.858 81.304 182.978 81.784 184.386 81.784ZM293.489 61.816C293.681 61.752 294.001 61.72 294.449 61.72C295.409 61.72 296.145 62.04 296.657 62.68C297.169 63.32 297.425 64.184 297.425 65.272C297.425 67.256 297.041 68.824 296.273 69.976C295.505 71.064 294.353 71.864 292.817 72.376C289.873 73.336 286.737 73.816 283.409 73.816C280.593 73.816 277.937 73.432 275.441 72.664C273.585 75.672 271.537 78.776 269.297 81.976C266.737 85.624 264.529 88.12 262.673 89.464C260.881 90.808 258.833 91.48 256.529 91.48C253.969 91.48 252.017 90.488 250.673 88.504C249.393 86.52 248.593 83.256 248.273 78.712L247.793 71.704C245.809 77.08 244.017 81.176 242.417 83.992C240.881 86.808 239.313 88.76 237.713 89.848C236.177 90.936 234.353 91.48 232.241 91.48C229.617 91.48 227.537 90.456 226.001 88.408C224.529 86.36 223.601 83.128 223.217 78.712C222.449 69.752 222.065 61.912 222.065 55.192V51.832C222.129 49.72 222.705 48.248 223.793 47.416C224.881 46.584 226.513 46.168 228.689 46.168C230.353 46.168 231.569 46.552 232.337 47.32C233.169 48.024 233.585 49.24 233.585 50.968C233.585 58.328 234.033 67.896 234.929 79.672C239.281 70.52 243.281 60.984 246.929 51.064C247.633 49.144 248.465 47.864 249.425 47.224C250.449 46.52 251.665 46.168 253.073 46.168C254.801 46.168 255.985 46.52 256.625 47.224C257.329 47.928 257.681 49.176 257.681 50.968C257.681 58.328 258.129 67.896 259.025 79.672C262.865 73.976 265.745 69.432 267.665 66.04C266.705 64.184 266.225 61.976 266.225 59.416C266.225 57.24 266.705 55.128 267.665 53.08C268.625 51.032 269.937 49.368 271.601 48.088C273.265 46.808 275.153 46.168 277.265 46.168C279.121 46.168 280.625 46.84 281.777 48.184C282.929 49.464 283.505 51.352 283.505 53.848C283.505 56.728 282.737 60.024 281.201 63.736C283.633 63.608 286.865 63.128 290.897 62.296L293.489 61.816ZM346.884 61.528C347.716 61.528 348.356 61.944 348.804 62.776C349.252 63.608 349.476 64.664 349.476 65.944C349.476 67.544 349.252 68.792 348.804 69.688C348.356 70.52 347.652 71.096 346.692 71.416C342.852 72.76 338.628 73.528 334.02 73.72C332.74 79.032 330.308 83.32 326.724 86.584C323.204 89.848 319.3 91.48 315.012 91.48C308.548 91.48 303.844 89.016 300.9 84.088C297.956 79.16 296.484 72.024 296.484 62.68C296.484 54.424 297.508 45.464 299.556 35.8C301.604 26.072 304.58 17.816 308.484 11.032C312.452 4.18399 317.156 0.759995 322.596 0.759995C325.54 0.759995 327.908 2.04 329.7 4.6C331.492 7.09599 332.388 10.36 332.388 14.392C332.388 19.64 331.396 24.856 329.412 30.04C327.428 35.224 324.132 40.664 319.524 46.36C323.812 46.68 327.3 48.472 329.988 51.736C332.676 54.936 334.276 58.904 334.788 63.64C337.796 63.448 341.38 62.808 345.54 61.72C345.924 61.592 346.372 61.528 346.884 61.528ZM320.388 10.264C319.108 10.264 317.7 12.184 316.164 16.024C314.692 19.8 313.316 24.952 312.036 31.48C310.756 38.008 309.796 45.144 309.156 52.888C313.38 45.144 316.74 38.328 319.236 32.44C321.796 26.488 323.076 21.208 323.076 16.6C323.076 14.552 322.82 12.984 322.308 11.896C321.86 10.808 321.22 10.264 320.388 10.264ZM315.396 81.304C317.38 81.304 319.14 80.472 320.676 78.808C322.212 77.144 323.236 74.744 323.748 71.608C321.764 70.264 320.228 68.504 319.14 66.328C318.116 64.152 317.604 61.848 317.604 59.416C317.604 58.52 317.732 57.304 317.988 55.768H317.7C315.076 55.768 312.868 57.08 311.076 59.704C309.348 62.264 308.484 65.72 308.484 70.072C308.484 73.72 309.156 76.504 310.5 78.424C311.908 80.344 313.54 81.304 315.396 81.304ZM390.723 69.592C391.555 69.592 392.195 69.976 392.643 70.744C393.155 71.512 393.411 72.568 393.411 73.912C393.411 76.472 392.803 78.456 391.587 79.864C389.219 82.744 385.859 85.4 381.507 87.832C377.219 90.264 372.611 91.48 367.683 91.48C360.963 91.48 355.747 89.656 352.035 86.008C348.323 82.36 346.467 77.368 346.467 71.032C346.467 66.616 347.395 62.52 349.251 58.744C351.107 54.904 353.667 51.864 356.931 49.624C360.259 47.384 364.003 46.264 368.163 46.264C371.875 46.264 374.851 47.384 377.091 49.624C379.331 51.8 380.451 54.776 380.451 58.552C380.451 62.968 378.851 66.776 375.651 69.976C372.515 73.112 367.171 75.608 359.619 77.464C361.219 80.408 364.259 81.88 368.739 81.88C371.619 81.88 374.883 80.888 378.531 78.904C382.243 76.856 385.443 74.2 388.131 70.936C388.899 70.04 389.763 69.592 390.723 69.592ZM366.531 55.672C364.163 55.672 362.147 57.048 360.483 59.8C358.883 62.552 358.083 65.88 358.083 69.784V69.976C361.859 69.08 364.835 67.736 367.011 65.944C369.187 64.152 370.275 62.072 370.275 59.704C370.275 58.488 369.923 57.528 369.219 56.824C368.579 56.056 367.683 55.672 366.531 55.672ZM399.13 91.48C396.698 91.48 394.97 90.2 393.946 87.64C392.986 85.08 392.506 80.984 392.506 75.352C392.506 67.032 393.69 59.128 396.058 51.64C396.634 49.784 397.562 48.44 398.842 47.608C400.186 46.712 402.042 46.264 404.41 46.264C405.69 46.264 406.586 46.424 407.098 46.744C407.61 47.064 407.866 47.672 407.866 48.568C407.866 49.592 407.386 51.896 406.426 55.48C405.786 58.04 405.274 60.28 404.89 62.2C404.506 64.12 404.186 66.488 403.93 69.304C406.042 63.8 408.41 59.32 411.034 55.864C413.658 52.408 416.218 49.944 418.714 48.472C421.274 47 423.61 46.264 425.722 46.264C429.882 46.264 431.962 48.344 431.962 52.504C431.962 53.336 431.674 55.352 431.098 58.552C430.586 61.112 430.33 62.712 430.33 63.352C430.33 65.592 431.13 66.712 432.73 66.712C434.522 66.712 436.826 65.304 439.642 62.488C440.474 61.656 441.338 61.24 442.234 61.24C443.066 61.24 443.706 61.624 444.154 62.392C444.666 63.096 444.922 64.056 444.922 65.272C444.922 67.64 444.282 69.496 443.002 70.84C441.21 72.696 439.098 74.296 436.666 75.64C434.298 76.92 431.77 77.56 429.082 77.56C425.69 77.56 423.098 76.696 421.306 74.968C419.578 73.24 418.714 70.904 418.714 67.96C418.714 67 418.81 66.04 419.002 65.08C419.13 63.8 419.194 62.936 419.194 62.488C419.194 61.464 418.842 60.952 418.138 60.952C417.178 60.952 415.898 62.04 414.298 64.216C412.762 66.328 411.226 69.144 409.69 72.664C408.154 76.184 406.906 79.896 405.946 83.8C405.242 86.808 404.41 88.856 403.45 89.944C402.554 90.968 401.114 91.48 399.13 91.48ZM449.538 91.48C447.106 91.48 445.378 90.2 444.354 87.64C443.394 85.08 442.914 80.984 442.914 75.352C442.914 67.032 444.098 59.128 446.466 51.64C447.042 49.784 447.97 48.44 449.25 47.608C450.594 46.712 452.45 46.264 454.818 46.264C456.098 46.264 456.994 46.424 457.506 46.744C458.018 47.064 458.274 47.672 458.274 48.568C458.274 49.592 457.794 51.896 456.834 55.48C456.194 58.04 455.682 60.28 455.298 62.2C454.914 64.12 454.594 66.488 454.338 69.304C456.45 63.8 458.818 59.32 461.442 55.864C464.066 52.408 466.626 49.944 469.122 48.472C471.682 47 474.018 46.264 476.13 46.264C480.29 46.264 482.37 48.344 482.37 52.504C482.37 53.336 482.082 55.352 481.506 58.552C480.994 61.112 480.738 62.712 480.738 63.352C480.738 65.592 481.538 66.712 483.138 66.712C484.93 66.712 487.234 65.304 490.05 62.488C490.882 61.656 491.746 61.24 492.642 61.24C493.474 61.24 494.114 61.624 494.562 62.392C495.074 63.096 495.33 64.056 495.33 65.272C495.33 67.64 494.69 69.496 493.41 70.84C491.618 72.696 489.506 74.296 487.074 75.64C484.706 76.92 482.178 77.56 479.49 77.56C476.098 77.56 473.506 76.696 471.714 74.968C469.986 73.24 469.122 70.904 469.122 67.96C469.122 67 469.218 66.04 469.41 65.08C469.538 63.8 469.602 62.936 469.602 62.488C469.602 61.464 469.25 60.952 468.546 60.952C467.586 60.952 466.306 62.04 464.706 64.216C463.17 66.328 461.634 69.144 460.098 72.664C458.562 76.184 457.314 79.896 456.354 83.8C455.65 86.808 454.818 88.856 453.858 89.944C452.962 90.968 451.522 91.48 449.538 91.48ZM526.729 46.264C528.201 46.264 529.225 46.456 529.801 46.84C530.377 47.224 530.665 47.864 530.665 48.76C530.665 50.296 529.833 55.768 528.169 65.176C526.697 74.2 525.833 79.544 525.577 81.208C523.209 97.656 519.945 110.68 515.785 120.28C511.625 129.88 506.089 134.68 499.177 134.68C495.913 134.68 493.257 133.656 491.209 131.608C489.161 129.624 488.137 127 488.137 123.736C488.137 120.728 488.809 117.656 490.153 114.52C491.561 111.384 494.121 107.768 497.833 103.672C501.609 99.64 506.921 95 513.769 89.752L514.057 87.544C514.505 85.176 515.017 81.784 515.593 77.368C514.313 81.976 512.521 85.496 510.217 87.928C507.913 90.296 505.481 91.48 502.921 91.48C500.041 91.48 497.673 90.168 495.817 87.544C494.025 84.856 493.129 81.528 493.129 77.56C493.129 72.76 493.449 68.376 494.089 64.408C494.729 60.376 495.785 56.12 497.257 51.64C497.897 49.72 498.793 48.344 499.945 47.512C501.097 46.68 502.921 46.264 505.417 46.264C506.825 46.264 507.785 46.488 508.297 46.936C508.873 47.384 509.161 48.056 509.161 48.952C509.161 49.464 508.809 51.192 508.105 54.136C507.465 56.504 506.953 58.648 506.569 60.568C506.057 63.192 505.609 65.72 505.225 68.152C504.841 70.52 504.649 72.472 504.649 74.008C504.649 76.44 505.321 77.656 506.665 77.656C507.625 77.656 508.809 76.696 510.217 74.776C511.689 72.856 513.225 69.944 514.825 66.04C516.489 62.136 518.089 57.336 519.625 51.64C520.137 49.72 520.905 48.344 521.929 47.512C523.017 46.68 524.617 46.264 526.729 46.264ZM500.233 125.368C501.833 125.368 503.625 123.512 505.609 119.8C507.593 116.088 509.577 109.912 511.561 101.272C506.633 105.432 503.049 109.208 500.809 112.6C498.633 116.056 497.545 119.064 497.545 121.624C497.545 122.712 497.737 123.608 498.121 124.312C498.569 125.016 499.273 125.368 500.233 125.368Z" fill="#EE9695"/>
</g>
<defs>
<filter id="filter0_i_17_350" x="0.617798" y="0.759766" width="530.047" height="139.92" filterUnits="userSpaceOnUse" color-interpolation-filters="sRGB">
<feFlood flood-opacity="0" result="BackgroundImageFix"/>
<feBlend mode="normal" in="SourceGraphic" in2="BackgroundImageFix" result="shape"/>
<feColorMatrix in="SourceAlpha" type="matrix" values="0 0 0 0 0 0 0 0 0 0 0 0 0 0 0 0 0 0 127 0" result="hardAlpha"/>
<feOffset dy="6"/>
<feGaussianBlur stdDeviation="4.6"/>
<feComposite in2="hardAlpha" operator="arithmetic" k2="-1" k3="1"/>
<feColorMatrix type="matrix" values="0 0 0 0 0 0 0 0 0 0 0 0 0 0 0 0 0 0 0.5 0"/>
<feBlend mode="normal" in2="shape" result="effect1_innerShadow_17_350"/>
</filter>
</defs>
</svg>
