<svg width="55" height="107" viewBox="0 0 55 107" fill="none" xmlns="http://www.w3.org/2000/svg">
<g id="Subtract" filter="url(#filter0_i_17_335)">
<path fill-rule="evenodd" clip-rule="evenodd" d="M52.2672 35.501H2.54053C0.916863 38.0468 0 40.9615 0 44.3041C0 46.3144 0.318154 48.2635 0.915264 50.1191H54.0847C54.6818 48.2635 55 46.3144 55 44.3041C55 41.0217 53.9896 38.0897 52.2672 35.501ZM13.2441 75.1787L6.69576 60.5606H47.8117L41.4177 75.1787H13.2441ZM17.9216 85.6201L27.499 107L36.8506 85.6201H17.9216ZM45.8333 21.661C45.8333 22.8226 45.7171 23.9587 45.495 25.0596H7.67151C7.44946 23.9587 7.33326 22.8226 7.33326 21.661C7.33326 11.6564 15.5833 -5.51123 22.9166 1.73469C25.5887 4.37494 29.3562 6.40841 33.066 8.41076C39.5374 11.9037 45.8333 15.3019 45.8333 21.661Z" fill="#EE9695"/>
</g>
<defs>
<filter id="filter0_i_17_335" x="0" y="0" width="55" height="113" filterUnits="userSpaceOnUse" color-interpolation-filters="sRGB">
<feFlood flood-opacity="0" result="BackgroundImageFix"/>
<feBlend mode="normal" in="SourceGraphic" in2="BackgroundImageFix" result="shape"/>
<feColorMatrix in="SourceAlpha" type="matrix" values="0 0 0 0 0 0 0 0 0 0 0 0 0 0 0 0 0 0 127 0" result="hardAlpha"/>
<feOffset dy="6"/>
<feGaussianBlur stdDeviation="3.15"/>
<feComposite in2="hardAlpha" operator="arithmetic" k2="-1" k3="1"/>
<feColorMatrix type="matrix" values="0 0 0 0 0 0 0 0 0 0 0 0 0 0 0 0 0 0 0.1 0"/>
<feBlend mode="normal" in2="shape" result="effect1_innerShadow_17_335"/>
</filter>
</defs>
</svg>
