<svg width="55" height="107" viewBox="0 0 55 107" fill="none" xmlns="http://www.w3.org/2000/svg">
<g id="Subtract" filter="url(#filter0_i_17_277)">
<path fill-rule="evenodd" clip-rule="evenodd" d="M52.267 35.5012H2.54069C0.916924 38.0471 0 40.9618 0 44.3046C0 46.3148 0.318133 48.2638 0.915204 50.1194H54.0848C54.6819 48.2638 55 46.3148 55 44.3046C55 41.0221 53.9895 38.0899 52.267 35.5012ZM13.2444 75.179L6.69602 60.5609H47.8114L41.4175 75.179H13.2444ZM17.9218 85.6206L27.499 107L36.8503 85.6206H17.9218ZM45.8333 21.6611C45.8333 22.8227 45.7171 23.9588 45.495 25.0597H7.67151C7.44946 23.9588 7.33326 22.8227 7.33326 21.6611C7.33326 11.6565 15.5833 -5.51126 22.9166 1.7347C25.5887 4.37496 29.3562 6.40844 33.066 8.4108C39.5374 11.9037 45.8333 15.3019 45.8333 21.6611Z" fill="#56433E"/>
</g>
<defs>
<filter id="filter0_i_17_277" x="0" y="0" width="55" height="113" filterUnits="userSpaceOnUse" color-interpolation-filters="sRGB">
<feFlood flood-opacity="0" result="BackgroundImageFix"/>
<feBlend mode="normal" in="SourceGraphic" in2="BackgroundImageFix" result="shape"/>
<feColorMatrix in="SourceAlpha" type="matrix" values="0 0 0 0 0 0 0 0 0 0 0 0 0 0 0 0 0 0 127 0" result="hardAlpha"/>
<feOffset dy="6"/>
<feGaussianBlur stdDeviation="3.15"/>
<feComposite in2="hardAlpha" operator="arithmetic" k2="-1" k3="1"/>
<feColorMatrix type="matrix" values="0 0 0 0 0 0 0 0 0 0 0 0 0 0 0 0 0 0 0.1 0"/>
<feBlend mode="normal" in2="shape" result="effect1_innerShadow_17_277"/>
</filter>
</defs>
</svg>
