<svg width="319" height="92" viewBox="0 0 319 92" fill="none" xmlns="http://www.w3.org/2000/svg">
<g filter="url(#filter0_i_17_322)">
<path d="M72.0965 49.528C73.5685 49.528 74.6245 49.848 75.2645 50.488C75.9685 51.128 76.3205 51.96 76.3205 52.984C76.3205 54.648 75.8085 56.12 74.7845 57.4C73.8245 58.68 72.2885 59.352 70.1765 59.416C65.0565 59.544 60.5125 59.16 56.5445 58.264C52.0005 67.8 46.4965 75.736 40.0325 82.072C33.6325 88.344 27.2005 91.48 20.7365 91.48C14.0805 91.48 9.1205 87.608 5.8565 79.864C2.5925 72.12 0.960497 61.656 0.960497 48.472C0.960497 37.208 1.7605 27.096 3.3605 18.136C3.9365 14.808 4.7365 12.568 5.7605 11.416C6.8485 10.2 8.6725 9.592 11.2325 9.592C15.4565 9.592 17.5685 11.416 17.5685 15.064C17.5685 15.448 17.5045 16.152 17.3765 17.176C15.4565 28.696 14.4965 39.128 14.4965 48.472C14.4965 58.264 15.2965 65.72 16.8965 70.84C18.5605 75.896 21.0245 78.424 24.2885 78.424C27.6165 78.424 31.2325 76.12 35.1365 71.512C39.0405 66.904 42.6245 61.112 45.8885 54.136C41.9845 51.704 39.0405 48.568 37.0565 44.728C35.0725 40.824 34.0805 36.344 34.0805 31.288C34.0805 26.232 34.8485 21.976 36.3845 18.52C37.9845 15 40.1285 12.376 42.8165 10.648C45.5685 8.92 48.6085 8.056 51.9365 8.056C56.0325 8.056 59.2645 9.528 61.6325 12.472C64.0645 15.416 65.2805 19.448 65.2805 24.568C65.2805 31.928 63.6805 39.96 60.4805 48.664C63.8725 49.24 67.7445 49.528 72.0965 49.528ZM43.7765 30.616C43.7765 36.888 45.7925 41.528 49.8245 44.536C52.3205 37.368 53.5685 31.448 53.5685 26.776C53.5685 24.088 53.2165 22.136 52.5125 20.92C51.8085 19.64 50.8485 19 49.6325 19C47.9045 19 46.4965 20.024 45.4085 22.072C44.3205 24.056 43.7765 26.904 43.7765 30.616ZM81.6635 91.48C77.6955 91.48 74.5275 90.04 72.1595 87.16C69.7915 84.28 68.6075 80.504 68.6075 75.832C68.6075 70.712 69.7915 65.88 72.1595 61.336C74.5275 56.728 77.6635 53.048 81.5675 50.296C85.5355 47.48 89.7275 46.072 94.1435 46.072C95.5515 46.072 96.4795 46.36 96.9275 46.936C97.4395 47.448 97.8555 48.408 98.1755 49.816C99.5195 49.56 100.927 49.432 102.399 49.432C105.535 49.432 107.103 50.552 107.103 52.792C107.103 54.136 106.623 57.336 105.664 62.392C104.192 69.752 103.456 74.872 103.456 77.752C103.456 78.712 103.68 79.48 104.128 80.056C104.639 80.632 105.279 80.92 106.047 80.92C107.264 80.92 108.736 80.152 110.463 78.616C112.191 77.016 114.528 74.456 117.472 70.936C118.24 70.04 119.104 69.592 120.064 69.592C120.896 69.592 121.536 69.976 121.983 70.744C122.496 71.512 122.752 72.568 122.752 73.912C122.752 76.472 122.144 78.456 120.928 79.864C118.304 83.128 115.52 85.88 112.576 88.12C109.632 90.36 106.783 91.48 104.031 91.48C101.919 91.48 99.9675 90.776 98.1755 89.368C96.4475 87.896 95.1355 85.912 94.2395 83.416C90.9115 88.792 86.7195 91.48 81.6635 91.48ZM85.1195 81.784C86.5275 81.784 87.8715 80.952 89.1515 79.288C90.4315 77.624 91.3595 75.416 91.9355 72.664L95.4875 55C92.7995 55.064 90.3035 56.088 87.9995 58.072C85.7595 59.992 83.9675 62.552 82.6235 65.752C81.2795 68.952 80.6075 72.344 80.6075 75.928C80.6075 77.912 80.9915 79.384 81.7595 80.344C82.5915 81.304 83.7115 81.784 85.1195 81.784ZM128.485 91.48C126.053 91.48 124.325 90.2 123.301 87.64C122.341 85.08 121.861 80.984 121.861 75.352C121.861 67.032 123.045 59.128 125.413 51.64C125.989 49.784 126.917 48.44 128.197 47.608C129.541 46.712 131.397 46.264 133.765 46.264C135.045 46.264 135.941 46.424 136.453 46.744C136.965 47.064 137.221 47.672 137.221 48.568C137.221 49.592 136.741 51.896 135.781 55.48C135.141 58.04 134.629 60.28 134.245 62.2C133.861 64.12 133.541 66.488 133.285 69.304C135.397 63.8 137.765 59.32 140.389 55.864C143.013 52.408 145.573 49.944 148.069 48.472C150.629 47 152.965 46.264 155.077 46.264C159.237 46.264 161.317 48.344 161.317 52.504C161.317 55 160.613 59.512 159.205 66.04C157.989 71.608 157.381 75.288 157.381 77.08C157.381 79.64 158.309 80.92 160.165 80.92C161.445 80.92 162.949 80.152 164.677 78.616C166.469 77.016 168.837 74.456 171.781 70.936C172.549 70.04 173.413 69.592 174.373 69.592C175.205 69.592 175.845 69.976 176.293 70.744C176.805 71.512 177.061 72.568 177.061 73.912C177.061 76.472 176.453 78.456 175.237 79.864C172.485 83.256 169.509 86.04 166.309 88.216C163.173 90.392 159.589 91.48 155.557 91.48C152.293 91.48 149.829 90.552 148.165 88.696C146.501 86.776 145.669 84.024 145.669 80.44C145.669 78.648 146.117 75.448 147.013 70.84C147.845 66.808 148.261 64.024 148.261 62.488C148.261 61.464 147.909 60.952 147.205 60.952C146.373 60.952 145.189 62.04 143.653 64.216C142.181 66.328 140.645 69.144 139.045 72.664C137.509 76.184 136.261 79.896 135.301 83.8C134.597 86.808 133.765 88.856 132.805 89.944C131.909 90.968 130.469 91.48 128.485 91.48ZM188.59 39.928C185.902 39.928 183.886 39.32 182.542 38.104C181.198 36.824 180.526 35.064 180.526 32.824C180.526 30.584 181.39 28.728 183.118 27.256C184.91 25.72 187.118 24.952 189.742 24.952C192.11 24.952 194.03 25.528 195.502 26.68C196.974 27.832 197.71 29.464 197.71 31.576C197.71 34.136 196.878 36.184 195.214 37.72C193.55 39.192 191.342 39.928 188.59 39.928ZM187.822 91.48C183.662 91.48 180.622 90.008 178.702 87.064C176.846 84.12 175.918 80.216 175.918 75.352C175.918 72.472 176.27 68.792 176.974 64.312C177.742 59.768 178.702 55.544 179.854 51.64C180.43 49.592 181.198 48.184 182.158 47.416C183.118 46.648 184.654 46.264 186.766 46.264C190.03 46.264 191.662 47.352 191.662 49.528C191.662 51.128 191.054 54.84 189.838 60.664C188.302 67.704 187.534 72.472 187.534 74.968C187.534 76.888 187.79 78.36 188.302 79.384C188.814 80.408 189.678 80.92 190.894 80.92C192.046 80.92 193.486 80.12 195.214 78.52C196.942 76.92 199.246 74.392 202.126 70.936C202.894 70.04 203.758 69.592 204.718 69.592C205.55 69.592 206.19 69.976 206.638 70.744C207.15 71.512 207.406 72.568 207.406 73.912C207.406 76.472 206.798 78.456 205.582 79.864C199.246 87.608 193.326 91.48 187.822 91.48ZM242.743 69.592C243.575 69.592 244.215 69.976 244.663 70.744C245.175 71.512 245.431 72.568 245.431 73.912C245.431 76.472 244.823 78.456 243.607 79.864C240.855 83.256 237.847 86.04 234.583 88.216C231.383 90.392 227.735 91.48 223.639 91.48C218.007 91.48 213.815 88.92 211.063 83.8C208.375 78.68 207.031 72.056 207.031 63.928C207.031 56.12 208.023 47.224 210.007 37.24C212.055 27.256 215.031 18.68 218.935 11.512C222.903 4.34399 227.607 0.759995 233.047 0.759995C236.119 0.759995 238.519 2.2 240.247 5.08C242.039 7.896 242.935 11.96 242.935 17.272C242.935 24.888 240.823 33.72 236.599 43.768C232.375 53.816 226.647 63.768 219.415 73.624C219.863 76.248 220.599 78.136 221.623 79.288C222.647 80.376 223.991 80.92 225.655 80.92C228.279 80.92 230.583 80.184 232.567 78.712C234.551 77.176 237.079 74.584 240.151 70.936C240.919 70.04 241.783 69.592 242.743 69.592ZM230.935 10.264C229.463 10.264 227.799 12.92 225.943 18.232C224.087 23.544 222.455 30.136 221.047 38.008C219.639 45.88 218.871 53.432 218.743 60.664C223.287 53.176 226.903 45.688 229.591 38.2C232.279 30.648 233.623 23.768 233.623 17.56C233.623 12.696 232.727 10.264 230.935 10.264ZM280.776 69.592C281.608 69.592 282.248 69.976 282.696 70.744C283.208 71.512 283.464 72.568 283.464 73.912C283.464 76.472 282.856 78.456 281.64 79.864C278.888 83.256 275.88 86.04 272.616 88.216C269.416 90.392 265.768 91.48 261.672 91.48C256.04 91.48 251.848 88.92 249.096 83.8C246.408 78.68 245.064 72.056 245.064 63.928C245.064 56.12 246.056 47.224 248.04 37.24C250.088 27.256 253.064 18.68 256.968 11.512C260.936 4.34399 265.64 0.759995 271.08 0.759995C274.152 0.759995 276.552 2.2 278.28 5.08C280.072 7.896 280.968 11.96 280.968 17.272C280.968 24.888 278.856 33.72 274.632 43.768C270.408 53.816 264.68 63.768 257.448 73.624C257.896 76.248 258.632 78.136 259.656 79.288C260.68 80.376 262.024 80.92 263.688 80.92C266.312 80.92 268.616 80.184 270.6 78.712C272.584 77.176 275.112 74.584 278.184 70.936C278.952 70.04 279.816 69.592 280.776 69.592ZM268.968 10.264C267.496 10.264 265.832 12.92 263.976 18.232C262.12 23.544 260.488 30.136 259.08 38.008C257.672 45.88 256.904 53.432 256.776 60.664C261.32 53.176 264.936 45.688 267.624 38.2C270.312 30.648 271.656 23.768 271.656 17.56C271.656 12.696 270.76 10.264 268.968 10.264ZM292.527 91.48C288.879 91.48 285.903 90.04 283.599 87.16C281.359 84.28 280.239 80.504 280.239 75.832C280.239 70.712 281.423 65.88 283.791 61.336C286.159 56.728 289.295 53.048 293.199 50.296C297.167 47.48 301.359 46.072 305.775 46.072C307.183 46.072 308.111 46.36 308.559 46.936C309.071 47.448 309.487 48.408 309.807 49.816C311.023 49.56 312.367 49.432 313.839 49.432C315.375 49.432 316.559 49.816 317.391 50.584C318.223 51.352 318.639 52.44 318.639 53.848C318.639 55.32 318.319 57.88 317.679 61.528C316.975 65.432 316.431 69.176 316.047 72.76C315.663 76.28 315.471 80.248 315.471 84.664C315.471 87.096 314.959 88.856 313.935 89.944C312.975 90.968 311.375 91.48 309.135 91.48C306.959 91.48 305.327 90.968 304.239 89.944C303.215 88.856 302.703 87.128 302.703 84.76L302.799 83.224C300.815 88.728 297.391 91.48 292.527 91.48ZM296.271 81.784C298.063 81.784 299.695 80.536 301.167 78.04C302.639 75.544 303.951 71.096 305.103 64.696L306.927 55C304.303 55.064 301.871 56.088 299.631 58.072C297.391 59.992 295.599 62.552 294.255 65.752C292.911 68.952 292.239 72.344 292.239 75.928C292.239 77.848 292.591 79.32 293.295 80.344C294.063 81.304 295.055 81.784 296.271 81.784Z" fill="#E0D0A3"/>
</g>
<defs>
<filter id="filter0_i_17_322" x="0.960449" y="0.759766" width="317.678" height="96.7202" filterUnits="userSpaceOnUse" color-interpolation-filters="sRGB">
<feFlood flood-opacity="0" result="BackgroundImageFix"/>
<feBlend mode="normal" in="SourceGraphic" in2="BackgroundImageFix" result="shape"/>
<feColorMatrix in="SourceAlpha" type="matrix" values="0 0 0 0 0 0 0 0 0 0 0 0 0 0 0 0 0 0 127 0" result="hardAlpha"/>
<feOffset dy="6"/>
<feGaussianBlur stdDeviation="4.6"/>
<feComposite in2="hardAlpha" operator="arithmetic" k2="-1" k3="1"/>
<feColorMatrix type="matrix" values="0 0 0 0 0 0 0 0 0 0 0 0 0 0 0 0 0 0 0.5 0"/>
<feBlend mode="normal" in2="shape" result="effect1_innerShadow_17_322"/>
</filter>
</defs>
</svg>
