<svg width="46" height="46" viewBox="0 0 46 46" fill="none" xmlns="http://www.w3.org/2000/svg">
<g filter="url(#filter0_i_285_205)">
<circle cx="23" cy="23" r="23" fill="#EDBFBA"/>
</g>
<g filter="url(#filter1_i_285_205)">
<path fill-rule="evenodd" clip-rule="evenodd" d="M27.949 15.3307C28.1972 14.7273 28.3334 14.0704 28.3334 13.3831C28.3334 11.5092 26.5019 10.5078 24.6193 9.47851C23.5401 8.88845 22.4441 8.28922 21.6667 7.51118C19.5334 5.37594 17.1334 10.435 17.1334 13.3831C17.1334 14.1651 17.3098 14.9079 17.6268 15.5772C16.0302 16.6711 15 18.1199 15 20.0557C15 21.5584 15.5955 22.9451 16.6005 24.0605L22.9997 38.5309L29.1227 24.3506C30.2942 23.19 31 21.6916 31 20.0557C31 18.0374 29.7201 16.4685 27.949 15.3307ZM22.3846 18.8974C22.3846 18.4443 22.752 18.0769 23.2051 18.0769C23.6583 18.0769 24.0256 18.4443 24.0256 18.8974V21.7692H26.8974C27.3506 21.7692 27.7179 22.1366 27.7179 22.5897C27.7179 23.0429 27.3506 23.4103 26.8974 23.4103H24.0256V26.2821C24.0256 26.7352 23.6583 27.1026 23.2051 27.1026C22.752 27.1026 22.3846 26.7352 22.3846 26.2821V23.4103H19.5128C19.0597 23.4103 18.6923 23.0429 18.6923 22.5897C18.6923 22.1366 19.0597 21.7692 19.5128 21.7692H22.3846V18.8974Z" fill="#1C1E1E"/>
</g>
<defs>
<filter id="filter0_i_285_205" x="-3.9" y="0" width="49.9" height="49.9" filterUnits="userSpaceOnUse" color-interpolation-filters="sRGB">
<feFlood flood-opacity="0" result="BackgroundImageFix"/>
<feBlend mode="normal" in="SourceGraphic" in2="BackgroundImageFix" result="shape"/>
<feColorMatrix in="SourceAlpha" type="matrix" values="0 0 0 0 0 0 0 0 0 0 0 0 0 0 0 0 0 0 127 0" result="hardAlpha"/>
<feOffset dx="-4" dy="4"/>
<feGaussianBlur stdDeviation="1.95"/>
<feComposite in2="hardAlpha" operator="arithmetic" k2="-1" k3="1"/>
<feColorMatrix type="matrix" values="0 0 0 0 0 0 0 0 0 0 0 0 0 0 0 0 0 0 0.25 0"/>
<feBlend mode="normal" in2="shape" result="effect1_innerShadow_285_205"/>
</filter>
<filter id="filter1_i_285_205" x="15" y="7" width="16" height="37.531" filterUnits="userSpaceOnUse" color-interpolation-filters="sRGB">
<feFlood flood-opacity="0" result="BackgroundImageFix"/>
<feBlend mode="normal" in="SourceGraphic" in2="BackgroundImageFix" result="shape"/>
<feColorMatrix in="SourceAlpha" type="matrix" values="0 0 0 0 0 0 0 0 0 0 0 0 0 0 0 0 0 0 127 0" result="hardAlpha"/>
<feOffset dy="6"/>
<feGaussianBlur stdDeviation="3.15"/>
<feComposite in2="hardAlpha" operator="arithmetic" k2="-1" k3="1"/>
<feColorMatrix type="matrix" values="0 0 0 0 0 0 0 0 0 0 0 0 0 0 0 0 0 0 0.1 0"/>
<feBlend mode="normal" in2="shape" result="effect1_innerShadow_285_205"/>
</filter>
</defs>
</svg>
