<svg width="606" height="677" viewBox="0 0 606 677" fill="none" xmlns="http://www.w3.org/2000/svg">
<g filter="url(#filter0_i_143_162)">
<path d="M846.961 -210.7C892.272 -198.018 913.337 -166.87 910.156 -117.257C906.974 -67.6445 899.978 -24.1682 889.167 13.1716C878.356 50.5113 896.336 90.3801 943.109 132.778C989.881 175.176 1009.52 220.991 1002.02 270.225C994.517 319.458 967.764 354.963 921.758 376.738C875.752 398.513 827.364 404.415 776.593 394.444C725.822 384.473 686.742 411.643 659.354 475.954C631.966 540.265 597.005 555.178 554.473 520.695C511.94 486.211 470.389 463.707 429.821 453.182C389.253 442.656 351.644 424.849 316.993 399.76C282.342 374.671 271.941 336.048 285.789 283.892C299.638 231.735 300.455 190.907 288.24 161.407C276.025 131.907 257.985 97.6892 234.12 58.7538C210.255 19.8185 198.242 -23.5871 198.079 -71.4631C197.917 -119.339 215.946 -157.93 252.167 -187.237C288.387 -216.543 328.107 -236.115 371.327 -245.952C414.548 -255.789 454.928 -269.646 492.469 -287.524C530.01 -305.402 569.698 -311.343 611.533 -305.348C653.368 -299.352 691.736 -285.249 726.639 -263.039C761.542 -240.828 801.65 -223.382 846.961 -210.7Z" fill="#2C2220"/>
</g>
<g filter="url(#filter1_i_143_162)">
<path d="M773.769 -120.692C805.983 -111.679 820.956 -89.5332 818.688 -54.2543C816.421 -18.9754 811.442 11.9404 803.752 38.4931C796.061 65.0457 808.84 93.3936 842.09 123.537C875.339 153.68 889.294 186.256 883.957 221.266C878.619 256.275 859.595 281.525 826.883 297.014C794.172 312.502 759.769 316.705 723.674 309.62C687.578 302.535 659.791 321.86 640.312 367.592C620.833 413.325 595.975 423.934 565.74 399.418C535.504 374.902 505.965 358.904 477.124 351.425C448.283 343.945 421.546 331.287 396.913 313.45C372.279 295.614 364.889 268.151 374.74 231.062C384.592 193.973 385.177 164.941 376.496 143.965C367.815 122.99 354.993 98.6605 338.03 70.977C321.067 43.2936 312.53 12.4301 312.42 -21.6134C312.31 -55.657 325.133 -83.1003 350.887 -103.943C376.642 -124.787 404.884 -138.708 435.613 -145.707C466.342 -152.707 495.053 -162.565 521.745 -175.282C548.438 -187.998 576.655 -192.227 606.398 -187.969C636.14 -183.71 663.418 -173.686 688.23 -157.896C713.043 -142.107 741.556 -129.705 773.769 -120.692Z" fill="#56433E"/>
</g>
<g filter="url(#filter2_i_143_162)">
<path d="M700.359 21.3393C719.438 26.6839 728.312 39.7963 726.98 60.6763C725.649 81.5563 722.71 99.8531 718.164 115.567C713.618 131.28 721.194 148.062 740.894 165.914C760.593 183.765 768.867 203.05 765.717 223.77C762.567 244.49 751.309 259.428 731.943 268.586C712.576 277.743 692.204 280.219 670.827 276.015C649.449 271.811 633 283.239 621.479 310.302C609.958 337.364 595.241 343.635 577.328 329.115C559.415 314.595 541.917 305.118 524.835 300.681C507.754 296.245 491.916 288.745 477.323 278.18C462.73 267.616 458.345 251.359 464.167 229.41C469.99 207.461 470.328 190.278 465.18 177.86C460.033 165.443 452.432 151.039 442.378 134.648C432.324 118.258 427.259 99.9879 427.184 79.8383C427.108 59.6888 434.693 43.4497 449.938 31.1212C465.183 18.7926 481.903 10.5617 500.099 6.42838C518.294 2.29506 535.293 -3.53074 551.096 -11.0491C566.899 -18.5673 583.608 -21.0616 601.222 -18.5319C618.837 -16.0021 634.993 -10.0606 649.692 -0.707429C664.391 8.64576 681.28 15.9947 700.359 21.3393Z" fill="#F2F1E9"/>
</g>
<defs>
<filter id="filter0_i_143_162" x="198.079" y="-342.606" width="836.493" height="881.355" filterUnits="userSpaceOnUse" color-interpolation-filters="sRGB">
<feFlood flood-opacity="0" result="BackgroundImageFix"/>
<feBlend mode="normal" in="SourceGraphic" in2="BackgroundImageFix" result="shape"/>
<feColorMatrix in="SourceAlpha" type="matrix" values="0 0 0 0 0 0 0 0 0 0 0 0 0 0 0 0 0 0 127 0" result="hardAlpha"/>
<feOffset dx="31" dy="-35"/>
<feGaussianBlur stdDeviation="25"/>
<feComposite in2="hardAlpha" operator="arithmetic" k2="-1" k3="1"/>
<feColorMatrix type="matrix" values="0 0 0 0 0 0 0 0 0 0 0 0 0 0 0 0 0 0 0.5 0"/>
<feBlend mode="normal" in2="shape" result="effect1_innerShadow_143_162"/>
</filter>
<filter id="filter1_i_143_162" x="312.419" y="-224.571" width="603.645" height="636.823" filterUnits="userSpaceOnUse" color-interpolation-filters="sRGB">
<feFlood flood-opacity="0" result="BackgroundImageFix"/>
<feBlend mode="normal" in="SourceGraphic" in2="BackgroundImageFix" result="shape"/>
<feColorMatrix in="SourceAlpha" type="matrix" values="0 0 0 0 0 0 0 0 0 0 0 0 0 0 0 0 0 0 127 0" result="hardAlpha"/>
<feOffset dx="31" dy="-35"/>
<feGaussianBlur stdDeviation="25"/>
<feComposite in2="hardAlpha" operator="arithmetic" k2="-1" k3="1"/>
<feColorMatrix type="matrix" values="0 0 0 0 0 0 0 0 0 0 0 0 0 0 0 0 0 0 0.25 0"/>
<feBlend mode="normal" in2="shape" result="effect1_innerShadow_143_162"/>
</filter>
<filter id="filter2_i_143_162" x="427.183" y="-54.4872" width="370.186" height="391.207" filterUnits="userSpaceOnUse" color-interpolation-filters="sRGB">
<feFlood flood-opacity="0" result="BackgroundImageFix"/>
<feBlend mode="normal" in="SourceGraphic" in2="BackgroundImageFix" result="shape"/>
<feColorMatrix in="SourceAlpha" type="matrix" values="0 0 0 0 0 0 0 0 0 0 0 0 0 0 0 0 0 0 127 0" result="hardAlpha"/>
<feOffset dx="31" dy="-35"/>
<feGaussianBlur stdDeviation="25"/>
<feComposite in2="hardAlpha" operator="arithmetic" k2="-1" k3="1"/>
<feColorMatrix type="matrix" values="0 0 0 0 0 0 0 0 0 0 0 0 0 0 0 0 0 0 0.25 0"/>
<feBlend mode="normal" in2="shape" result="effect1_innerShadow_143_162"/>
</filter>
</defs>
</svg>
