<svg width="606" height="677" viewBox="0 0 606 677" fill="none" xmlns="http://www.w3.org/2000/svg">
<g filter="url(#filter0_i_145_905)">
<path d="M846.961 -210.7C892.272 -198.018 913.337 -166.87 910.156 -117.258C906.974 -67.6448 899.978 -24.1685 889.167 13.1713C878.356 50.511 896.336 90.3798 943.109 132.778C989.881 175.175 1009.52 220.991 1002.02 270.225C994.517 319.458 967.764 354.962 921.758 376.738C875.752 398.513 827.364 404.415 776.593 394.444C725.822 384.473 686.742 411.643 659.354 475.954C631.966 540.264 597.005 555.178 554.473 520.694C511.94 486.211 470.389 463.706 429.821 453.181C389.253 442.656 351.644 424.849 316.993 399.76C282.342 374.671 271.941 336.048 285.789 283.891C299.638 231.735 300.455 190.906 288.24 161.406C276.025 131.906 257.985 97.6889 234.12 58.7535C210.255 19.8182 198.242 -23.5874 198.079 -71.4634C197.917 -119.339 215.946 -157.931 252.167 -187.237C288.387 -216.544 328.107 -236.115 371.327 -245.952C414.548 -255.789 454.928 -269.647 492.469 -287.524C530.01 -305.402 569.698 -311.343 611.533 -305.348C653.368 -299.353 691.736 -285.25 726.639 -263.039C761.542 -240.829 801.65 -223.382 846.961 -210.7Z" fill="#390000"/>
</g>
<g filter="url(#filter1_i_145_905)">
<path d="M773.769 -120.693C805.983 -111.68 820.956 -89.5336 818.688 -54.2547C816.421 -18.9757 811.442 11.94 803.752 38.4927C796.061 65.0454 808.84 93.3932 842.09 123.536C875.339 153.679 889.294 186.256 883.957 221.265C878.619 256.275 859.595 281.524 826.883 297.013C794.172 312.502 759.769 316.704 723.674 309.62C687.578 302.535 659.791 321.859 640.312 367.592C620.833 413.325 595.975 423.933 565.74 399.418C535.504 374.902 505.965 358.904 477.124 351.424C448.283 343.944 421.546 331.286 396.913 313.45C372.279 295.613 364.889 268.15 374.74 231.061C384.592 193.973 385.177 164.94 376.496 143.965C367.815 122.99 354.993 98.6601 338.03 70.9767C321.067 43.2932 312.53 12.4297 312.42 -21.6138C312.31 -55.6573 325.133 -83.1007 350.887 -103.944C376.642 -124.787 404.884 -138.708 435.613 -145.708C466.342 -152.707 495.053 -162.565 521.745 -175.282C548.438 -187.998 576.655 -192.227 606.398 -187.969C636.14 -183.71 663.418 -173.686 688.23 -157.897C713.043 -142.107 741.556 -129.706 773.769 -120.693Z" fill="#EE9695"/>
</g>
<g filter="url(#filter2_i_145_905)">
<path d="M700.359 21.3389C719.438 26.6835 728.312 39.7958 726.98 60.6758C725.649 81.5559 722.71 99.8526 718.164 115.566C713.618 131.28 721.194 148.062 740.894 165.913C760.593 183.764 768.867 203.05 765.717 223.77C762.567 244.489 751.309 259.428 731.943 268.585C712.576 277.743 692.204 280.219 670.827 276.015C649.449 271.81 633 283.239 621.479 310.301C609.958 337.363 595.241 343.634 577.328 329.115C559.415 314.595 541.917 305.117 524.835 300.681C507.754 296.245 491.916 288.745 477.323 278.18C462.73 267.615 458.345 251.359 464.167 229.41C469.99 207.461 470.328 190.277 465.18 177.86C460.033 165.442 452.432 151.038 442.378 134.648C432.324 118.257 427.259 99.9874 427.184 79.8379C427.108 59.6883 434.693 43.4493 449.938 31.1207C465.183 18.7922 481.903 10.5612 500.099 6.42792C518.294 2.2946 535.293 -3.5312 551.096 -11.0495C566.899 -18.5678 583.608 -21.062 601.222 -18.5323C618.837 -16.0026 634.993 -10.0611 649.692 -0.707886C664.391 8.6453 681.28 15.9942 700.359 21.3389Z" fill="#EDBFBA"/>
</g>
<defs>
<filter id="filter0_i_145_905" x="198.079" y="-342.606" width="836.493" height="881.355" filterUnits="userSpaceOnUse" color-interpolation-filters="sRGB">
<feFlood flood-opacity="0" result="BackgroundImageFix"/>
<feBlend mode="normal" in="SourceGraphic" in2="BackgroundImageFix" result="shape"/>
<feColorMatrix in="SourceAlpha" type="matrix" values="0 0 0 0 0 0 0 0 0 0 0 0 0 0 0 0 0 0 127 0" result="hardAlpha"/>
<feOffset dx="31" dy="-35"/>
<feGaussianBlur stdDeviation="25"/>
<feComposite in2="hardAlpha" operator="arithmetic" k2="-1" k3="1"/>
<feColorMatrix type="matrix" values="0 0 0 0 0 0 0 0 0 0 0 0 0 0 0 0 0 0 0.5 0"/>
<feBlend mode="normal" in2="shape" result="effect1_innerShadow_145_905"/>
</filter>
<filter id="filter1_i_145_905" x="312.419" y="-224.571" width="603.645" height="636.822" filterUnits="userSpaceOnUse" color-interpolation-filters="sRGB">
<feFlood flood-opacity="0" result="BackgroundImageFix"/>
<feBlend mode="normal" in="SourceGraphic" in2="BackgroundImageFix" result="shape"/>
<feColorMatrix in="SourceAlpha" type="matrix" values="0 0 0 0 0 0 0 0 0 0 0 0 0 0 0 0 0 0 127 0" result="hardAlpha"/>
<feOffset dx="31" dy="-35"/>
<feGaussianBlur stdDeviation="25"/>
<feComposite in2="hardAlpha" operator="arithmetic" k2="-1" k3="1"/>
<feColorMatrix type="matrix" values="0 0 0 0 0 0 0 0 0 0 0 0 0 0 0 0 0 0 0.5 0"/>
<feBlend mode="normal" in2="shape" result="effect1_innerShadow_145_905"/>
</filter>
<filter id="filter2_i_145_905" x="427.183" y="-54.4873" width="370.186" height="391.207" filterUnits="userSpaceOnUse" color-interpolation-filters="sRGB">
<feFlood flood-opacity="0" result="BackgroundImageFix"/>
<feBlend mode="normal" in="SourceGraphic" in2="BackgroundImageFix" result="shape"/>
<feColorMatrix in="SourceAlpha" type="matrix" values="0 0 0 0 0 0 0 0 0 0 0 0 0 0 0 0 0 0 127 0" result="hardAlpha"/>
<feOffset dx="31" dy="-35"/>
<feGaussianBlur stdDeviation="25"/>
<feComposite in2="hardAlpha" operator="arithmetic" k2="-1" k3="1"/>
<feColorMatrix type="matrix" values="0 0 0 0 0 0 0 0 0 0 0 0 0 0 0 0 0 0 0.5 0"/>
<feBlend mode="normal" in2="shape" result="effect1_innerShadow_145_905"/>
</filter>
</defs>
</svg>
